<svg preserveAspectRatio="none" width="100%" height="100%" overflow="visible" style="display: block;" viewBox="0 0 9.64566 8.49265" fill="none" xmlns="http://www.w3.org/2000/svg">
<path id="Center" fill-rule="evenodd" clip-rule="evenodd" d="M0.10595 6.89773C0.00411138 6.96296 -0.0307185 7.09665 0.0297506 7.20138L0.690723 8.34622C0.752023 8.45239 0.887805 8.4884 0.995613 8.43002C3.4688 7.09072 6.35405 7.19024 8.66379 8.46395C8.77178 8.52351 8.90857 8.48774 8.97024 8.38094L9.61586 7.26269C9.67825 7.15462 9.63918 7.01664 9.53132 6.95389C8.36696 6.27643 7.35832 5.29502 6.6365 4.04477C5.93972 2.83792 5.5935 1.52487 5.56625 0.223541C5.56367 0.100354 5.46435 6.16432e-08 5.34113 5.64276e-08L4.00807 0C3.88368 -5.26518e-09 3.78389 0.102239 3.78291 0.226621C3.76235 2.84943 2.45011 5.39625 0.10595 6.89773Z" fill="var(--fill-0, white)"/>
</svg>
