<svg width="16" height="30" viewBox="0 0 16 30" fill="none" xmlns="http://www.w3.org/2000/svg">
<path d="M0 3.3725L1.33194 2.12218L2.66388 3.3725V13.1667L1.33194 14.417L0 13.1667V3.3725Z" fill="#AFB4B7"/>
<path d="M0 16.9L1.33194 15.6497L2.66388 16.9V26.6942L1.33194 27.9445L0 26.6942V16.9Z" fill="#AFB4B7"/>
<path d="M13.0873 3.3725L14.4192 2.12218L15.7511 3.3725V13.1667L14.4192 14.417L13.0873 13.1667V3.3725Z" fill="black" fill-opacity="0.98"/>
<path d="M13.0873 16.9L14.4192 15.6497L15.7511 16.9V26.6942L14.4192 27.9445L13.0873 26.6942V16.9Z" fill="black" fill-opacity="0.98"/>
<path d="M12.6982 0.281156L13.9277 1.61309L12.6982 2.94503L3.0673 2.94503L1.83782 1.61309L3.0673 0.281155L12.6982 0.281156Z" fill="#AFB4B7"/>
<path d="M12.6982 13.8087L13.9277 15.1406L12.6982 16.4725L3.0673 16.4725L1.83782 15.1406L3.0673 13.8087L12.6982 13.8087Z" fill="#AFB4B7"/>
<path d="M12.6982 27.3361L13.9277 28.6681L12.6982 30L3.0673 30L1.83782 28.6681L3.0673 27.3361L12.6982 27.3361Z" fill="#AFB4B7"/>
</svg>
