<svg width="166" height="26" viewBox="0 0 166 26" fill="none" xmlns="http://www.w3.org/2000/svg">
<path d="M38 8.30566C33.8541 8.79399 31 9.8168 31 11C31 12.6569 36.5964 14 43.5 14C50.4036 14 56 12.6569 56 11C56 9.8168 53.1459 8.79399 49 8.30566V0H134.655C133.626 0.530765 133 1.23161 133 2C133 2.33313 133.119 2.65275 133.336 2.95215C130.708 3.86094 129 5.33532 129 7C129 9.76142 133.701 12 139.5 12C145.299 12 150 9.76142 150 7C150 5.33513 148.291 3.86092 145.663 2.95215C145.88 2.65262 146 2.3333 146 2C146 1.23161 145.374 0.530765 144.345 0H165C165.552 2.31931e-06 166 0.447717 166 1V25C166 25.5523 165.552 26 165 26H115V22.9482C120.088 22.6016 124 20.5189 124 18C124 16.5788 122.754 15.298 120.755 14.3877C120.914 14.104 121 13.807 121 13.5C121 11.567 117.642 10 113.5 10C109.358 10 106 11.567 106 13.5C106 13.8068 106.085 14.1041 106.244 14.3877C104.245 15.298 103 16.579 103 18C103 20.5189 106.912 22.6016 112 22.9482V26H1C0.447717 26 2.01333e-08 25.5523 0 25V1C3.86556e-07 0.447716 0.447715 0 1 0H38V8.30566Z" fill="black" fill-opacity="0.98"/>
</svg>
