<svg width="26" height="25" viewBox="0 0 26 25" fill="none" xmlns="http://www.w3.org/2000/svg">
<g clip-path="url(#clip0_298_14414)">
<path fill-rule="evenodd" clip-rule="evenodd" d="M22.8965 7.86627C24.6104 7.86627 25.9999 6.45808 25.9999 4.72098C25.9999 2.98388 24.6104 1.57568 22.8965 1.57568C21.1825 1.57568 19.7931 2.98388 19.7931 4.72098C19.7931 5.44716 20.0359 6.11585 20.4438 6.64822C20.4084 6.73263 20.3697 6.81019 20.3301 6.87337L12.2022 19.8666C12.0688 20.0799 12.163 20.2529 12.4129 20.2529H13.8113C14.0611 20.2529 14.3719 20.0786 14.5045 19.8651L21.7889 8.146C21.8737 8.00992 22.0289 7.87593 22.1937 7.78526C22.4195 7.83823 22.6548 7.86627 22.8965 7.86627Z" fill="#AFB4B7"/>
<path fill-rule="evenodd" clip-rule="evenodd" d="M2.95103 8.4734C1.32122 8.4734 0 7.13428 0 5.48248C0 3.83065 1.32122 2.49158 2.95103 2.49158C4.58083 2.49158 5.90205 3.83065 5.90205 5.48248C5.90205 6.17299 5.67117 6.80887 5.28337 7.31509C5.317 7.39529 5.35377 7.46894 5.39134 7.52901L13.1204 19.8844C13.2472 20.0873 13.1576 20.2517 12.92 20.2517H11.5902C11.3526 20.2517 11.0571 20.086 10.931 19.883L4.00415 8.73914C3.92367 8.60982 3.77617 8.48246 3.61958 8.39631C3.40477 8.44671 3.18097 8.4734 2.95103 8.4734Z" fill="black"/>
<path fill-rule="evenodd" clip-rule="evenodd" d="M12.5292 0.0228959L9.67468 4.34111e-05C9.03414 -0.0050829 8.37214 0.444455 8.19988 1.00401L6.80394 5.53882C6.71801 5.8184 6.79221 6.24099 6.96968 6.48324L8.19041 8.14865C8.36881 8.39196 8.57868 8.35946 8.66121 8.07831L10.3757 2.23827L12.5292 2.2718V0.0228959ZM10.6895 22.5261H6.6214C6.29904 22.5261 6.08563 22.2945 6.1431 22.0086L6.85808 18.4557C6.91581 18.169 6.83001 17.7352 6.66708 17.4846L5.33516 15.4364C5.17208 15.1859 4.9933 15.2145 4.93555 15.5004L3.21348 24.0328C3.15587 24.3189 3.36971 24.5524 3.6912 24.5547L12.5292 24.6163V23.1667H12.5301V24.6163L21.3681 24.5547C21.6896 24.5524 21.9035 24.3189 21.8459 24.0328L20.1238 15.5004C20.0661 15.2145 19.8873 15.1859 19.7242 15.4364L18.3923 17.4846C18.2293 17.7352 18.1435 18.169 18.2013 18.4557L18.9163 22.0086C18.9737 22.2945 18.7603 22.5261 18.4379 22.5261H14.5003C14.4027 22.2281 14.2376 21.9542 14.0144 21.728C13.6379 21.3464 13.1273 21.1321 12.5949 21.1321C12.0625 21.1321 11.5519 21.3464 11.1754 21.728C10.9523 21.9542 10.7871 22.2281 10.6895 22.5261ZM12.5301 2.2718L14.6837 2.23827L16.3981 8.07831C16.4807 8.35946 16.6905 8.39196 16.8689 8.14865L18.0897 6.48324C18.2671 6.24099 18.3413 5.8184 18.2554 5.53882L16.8595 1.00401C16.6872 0.444455 16.0252 -0.0050829 15.3847 4.34111e-05L12.5301 0.0228959V2.2718Z" fill="black"/>
</g>
<defs>
<clipPath id="clip0_298_14414">
<rect width="26" height="25" fill="white"/>
</clipPath>
</defs>
</svg>
