<svg width="46" height="28" viewBox="0 0 46 28" fill="none" xmlns="http://www.w3.org/2000/svg">
<path d="M5.5 16.5L0.51637 25.1081C0.200204 25.6542 0.221647 26.3325 0.571677 26.8575C0.843209 27.2648 1.28006 27.5329 1.76769 27.5758C3.42676 27.7217 5.97679 27.8411 7 27.5C8.5 27 9.5 21.5 10.5 21.5C11.5 21.5 14.5 21.5 16 21C17.5 20.5 19 18 20 16.5H17C17 17 16.3 18.2 15.5 19C14.7 19.8 12.3333 19.5 11 19.5L12 16.5H5.5Z" fill="black"/>
<path d="M28 9H39.3369C39.8987 7.81755 41.1038 7 42.5 7C44.433 7 46 8.567 46 10.5C46 12.433 44.433 14 42.5 14C41.1038 14 39.8987 13.1825 39.3369 12H28V21H23V0H28V9Z" fill="black"/>
<path d="M22 15H5C2.23858 15 0 12.7614 0 10C0 7.23858 2.23858 5 5 5H22V15ZM3 9C2.44772 9 2 9.44772 2 10C2 10.5523 2.44772 11 3 11C3.55228 11 4 10.5523 4 10C4 9.44772 3.55228 9 3 9Z" fill="black"/>
</svg>
