<svg preserveAspectRatio="none" width="100%" height="100%" overflow="visible" style="display: block;" viewBox="0 0 48 21.434" fill="none" xmlns="http://www.w3.org/2000/svg">
<g id="Frame 2147238483">
<g id="Vector">
<path d="M33.2831 5.46379C33.7848 5.46379 34.2939 5.48209 34.8103 5.51869C35.3416 5.5553 35.6957 5.6163 35.8728 5.70171C36.1384 5.82372 36.345 6.00674 36.4925 6.25076C36.6401 6.48258 36.7213 6.67169 36.736 6.81811C36.7803 7.14754 36.736 7.50137 36.6032 7.8796C36.4852 8.25783 36.3302 8.62386 36.1384 8.97769C35.9613 9.31932 35.7843 9.61215 35.6072 9.85617C35.5777 9.90497 35.4965 10.0148 35.3637 10.1856C35.2457 10.3442 35.1055 10.5333 34.9431 10.7529C34.7808 10.9726 34.6333 11.1922 34.5005 11.4118C34.3824 11.6192 34.3013 11.7961 34.257 11.9426C34.1832 12.2354 34.1685 12.5221 34.2127 12.8027C34.257 13.0711 34.3308 13.3152 34.4341 13.5348C34.5226 13.73 34.6628 13.974 34.8546 14.2669C35.0612 14.5475 35.2825 14.8342 35.5186 15.127C35.7547 15.4077 35.9687 15.6639 36.1605 15.8957C36.3671 16.1275 36.5147 16.2922 36.6032 16.3898C36.7951 16.5851 36.9205 16.8047 36.9795 17.0487C37.0533 17.2927 36.9279 17.6343 36.6032 18.0736C36.4999 18.1956 36.2712 18.3237 35.9171 18.4579C35.5777 18.5921 35.2088 18.6165 34.8103 18.5311C34.6185 18.4823 34.375 18.3603 34.0799 18.1651C33.7848 17.9577 33.4602 17.7442 33.106 17.5245C32.7519 17.2927 32.3977 17.1097 32.0436 16.9755C31.896 16.9145 31.6747 16.8413 31.3795 16.7559C31.0844 16.6705 30.7819 16.6461 30.472 16.6827C30.1621 16.7071 29.8449 16.8169 29.5202 17.0121C29.1956 17.1951 28.9521 17.3415 28.7898 17.4513C28.6865 17.5245 28.5316 17.6465 28.325 17.8174C28.1184 17.9882 27.9413 18.1651 27.7938 18.3481C27.661 18.5189 27.6315 18.6653 27.7052 18.7873C27.5134 18.9338 27.2109 19.0924 26.7977 19.2632C26.3846 19.434 25.8902 19.4767 25.3147 19.3913C25.1377 19.3669 24.9163 19.2998 24.6507 19.19C24.3851 19.0802 24.1711 18.8911 24.0088 18.6226C23.8612 18.3908 23.8096 18.1834 23.8539 18.0004C23.9129 17.8052 23.9793 17.6465 24.0531 17.5245C24.0826 17.4757 24.2006 17.3415 24.4072 17.1219C24.6138 16.9023 24.8573 16.6461 25.1377 16.3532C25.4328 16.0482 25.7279 15.7432 26.023 15.4382C26.3329 15.1331 26.5985 14.8647 26.8199 14.6329C27.0412 14.4011 27.1888 14.2486 27.2626 14.1753C27.3511 14.0777 27.5208 13.8886 27.7716 13.608C28.0373 13.3152 28.325 12.9979 28.6349 12.6563C28.9448 12.3147 29.2325 12.0036 29.4981 11.7229C29.7637 11.4301 29.9482 11.2227 30.0515 11.1007C30.199 10.9421 30.354 10.7651 30.5163 10.5699C30.6786 10.3625 30.804 10.1673 30.8926 9.98428C30.9959 9.78906 31.0106 9.62435 30.9368 9.49014C30.8335 9.29492 30.7007 9.17291 30.5384 9.12411C30.3909 9.0753 30.2359 9.0448 30.0736 9.0326C29.9998 9.0204 29.8228 9.0082 29.5424 8.996C29.2768 8.97159 28.9669 8.94719 28.6127 8.92279C28.2734 8.89839 27.9487 8.87398 27.6388 8.84958C27.329 8.81298 27.0929 8.78248 26.9305 8.75807C26.6059 8.69707 26.3255 8.60556 26.0894 8.48355C25.8681 8.36154 25.6836 8.20903 25.5361 8.02601C25.3885 7.83079 25.2262 7.53797 25.0491 7.14754C24.8868 6.7449 24.7392 6.36667 24.6064 6.01284C24.7245 6.01284 24.9901 6.00674 25.4033 5.99454C25.8312 5.97013 26.3403 5.93963 26.9305 5.90303C27.5355 5.85422 28.1701 5.80542 28.8341 5.75661C29.4981 5.70781 30.1326 5.66511 30.7376 5.6285C31.3574 5.5797 31.896 5.5431 32.3534 5.51869C32.8109 5.48209 33.1208 5.46379 33.2831 5.46379Z" fill="var(--fill-0, #0D0C0A)"/>
<path d="M18.9868 6.09337C19.1786 6.33739 19.2967 6.63632 19.341 6.99015C19.4 7.33178 19.4074 7.68561 19.3631 8.05164C19.3336 8.40547 19.2893 8.7349 19.2303 9.03993C19.1713 9.34495 19.127 9.58287 19.0975 9.75369C19.068 9.9123 19.0237 10.1929 18.9647 10.5956C18.9204 10.986 18.8688 11.413 18.8097 11.8767C18.7507 12.3281 18.6917 12.7429 18.6327 13.1212C18.5884 13.4872 18.5589 13.7251 18.5441 13.8349C18.4999 14.0668 18.4851 14.3047 18.4999 14.5487C18.5146 14.7805 18.6622 14.9757 18.9425 15.1344C19.1344 15.232 19.4 15.2625 19.7394 15.2259C20.0788 15.1893 20.4108 15.1283 20.7354 15.0428C21.0601 14.9574 21.2888 14.8903 21.4216 14.8415C21.5249 14.8049 21.7315 14.7378 22.0413 14.6402C22.3512 14.5304 22.6906 14.4145 23.0595 14.2925C23.4432 14.1705 23.7899 14.0546 24.0998 13.9448C24.4245 13.8349 24.6532 13.7556 24.786 13.7068C25.1549 13.536 25.5238 13.4506 25.8927 13.4506C26.2764 13.4506 26.5936 13.5238 26.8445 13.6702C27.1101 13.8044 27.2355 14.0058 27.2208 14.2742C27.206 14.6768 27.0806 15.0856 26.8445 15.5004C26.6084 15.9152 26.2247 16.2874 25.6935 16.6168C25.5902 16.5558 25.4943 16.4948 25.4058 16.4338C25.332 16.3606 25.1623 16.385 24.8967 16.507C24.7934 16.568 24.5646 16.69 24.2105 16.873C23.8564 17.056 23.4432 17.2634 22.971 17.4953C22.4988 17.7149 22.0413 17.9284 21.5987 18.1358C21.156 18.3432 20.8018 18.5079 20.5362 18.63C20.005 18.8618 19.4369 19.0204 18.8319 19.1058C18.2269 19.1912 17.5333 19.1302 16.7512 18.9228C16.3676 18.8252 16.0429 18.6666 15.7773 18.4469C15.5265 18.2273 15.3273 17.9894 15.1797 17.7332C15.0469 17.477 14.9436 17.239 14.8698 17.0194C14.8108 16.7998 14.7739 16.6412 14.7592 16.5436C14.7444 16.3606 14.7223 16.1653 14.6928 15.9579C14.678 15.7505 14.6706 15.6468 14.6706 15.6468C14.6854 15.6346 14.7001 15.4699 14.7149 15.1527C14.7444 14.8232 14.7813 14.4084 14.8256 13.9081C14.8698 13.3957 14.9141 12.8528 14.9584 12.2793C15.0026 11.7059 15.0395 11.1629 15.069 10.6505C15.1133 10.1258 15.1428 9.68658 15.1576 9.33275C15.1871 8.96672 15.2018 8.7532 15.2018 8.6922C15.2018 8.59459 15.2018 8.38717 15.2018 8.06994C15.2166 7.75272 15.224 7.38668 15.224 6.97185C15.224 6.54481 15.2166 6.12998 15.2018 5.72734C15.2018 5.3125 15.1871 4.97087 15.1576 4.70245C15.2756 4.66585 15.5043 4.67805 15.8437 4.73905C16.1979 4.80006 16.5815 4.89767 16.9947 5.03188C17.4227 5.16609 17.8211 5.32471 18.19 5.50772C18.5736 5.69074 18.8392 5.88595 18.9868 6.09337Z" fill="var(--fill-0, #0D0C0A)"/>
<path d="M8.10906 6.19584C8.49273 6.22024 9.02395 6.25074 9.70273 6.28734C10.3815 6.31175 11.016 6.34225 11.6063 6.37885C12.3884 6.42766 13.045 6.59237 13.5762 6.873C14.1075 7.14142 14.5059 7.48915 14.7715 7.91619C15.0223 8.29442 15.1625 8.72146 15.192 9.1973C15.2215 9.66094 15.1109 10.1429 14.86 10.6431C14.6829 11.0214 14.41 11.4789 14.0411 12.0157C13.6869 12.5404 13.2959 13.0711 12.8679 13.608C12.44 14.1448 12.0342 14.6329 11.6506 15.0721C11.2816 15.5113 11.0013 15.8347 10.8094 16.0421C10.7504 16.0909 10.6324 16.219 10.4553 16.4264C10.2782 16.6216 10.234 16.9023 10.3225 17.2683C10.1454 17.4757 9.93883 17.6953 9.70273 17.9272C9.46663 18.1468 9.18627 18.3481 8.86163 18.5311C8.65504 18.6409 8.39681 18.7629 8.08693 18.8971C7.77705 19.0314 7.45241 19.1229 7.11302 19.1717C6.77363 19.2205 6.44161 19.1778 6.11698 19.0436C6.01368 18.9947 5.86612 18.8971 5.67429 18.7507C5.48246 18.6043 5.32752 18.4091 5.20947 18.1651C5.10618 17.9089 5.10618 17.5916 5.20947 17.2134C5.23898 17.0792 5.37917 16.8596 5.63002 16.5545C5.89564 16.2373 6.19814 15.8957 6.53753 15.5296C6.87692 15.1636 7.19418 14.8342 7.4893 14.5414C7.78443 14.2363 7.98364 14.0289 8.08693 13.9191C8.20498 13.8093 8.37468 13.6446 8.59602 13.425C8.81736 13.1931 9.05346 12.943 9.30432 12.6746C9.55517 12.394 9.77651 12.1195 9.96834 11.851C10.1749 11.5826 10.3077 11.3508 10.3668 11.1556C10.4405 10.9359 10.4701 10.759 10.4553 10.6248C10.4405 10.4906 10.3741 10.3686 10.2561 10.2588C10.138 10.1612 9.87981 10.0392 9.48139 9.89276C9.08297 9.74635 8.6034 9.63044 8.04266 9.54503C7.93937 9.52063 7.73278 9.50232 7.4229 9.49012C7.12778 9.46572 6.78838 9.43522 6.40472 9.39861C6.03582 9.36201 5.67429 9.32541 5.32014 9.28881C4.96599 9.24 4.67825 9.1851 4.45691 9.12409C4.14703 9.03868 3.8519 8.92887 3.57153 8.79466C3.30592 8.66045 3.06982 8.47744 2.86324 8.24562C2.64189 8.00159 2.45744 7.69047 2.30988 7.31223C2.16232 6.934 2.05902 6.46426 2 5.90301C2.10329 5.93962 2.34677 5.97012 2.73043 5.99452C3.12885 6.01892 3.59367 6.04332 4.12489 6.06773C4.67087 6.09213 5.21685 6.11043 5.76283 6.12263C6.32356 6.13483 6.8179 6.14703 7.24583 6.15923C7.67376 6.17144 7.9615 6.18364 8.10906 6.19584Z" fill="var(--fill-0, #0D0C0A)"/>
<path d="M12.5578 3.43483C13.0153 3.42263 13.421 3.545 13.7752 3.80122C14.144 4.04522 14.3362 4.35647 14.3509 4.73465C14.3655 5.10047 14.2106 5.40548 13.8862 5.6494C13.5616 5.89342 13.1921 6.00931 12.7789 5.99711C12.2773 5.97267 11.8645 5.85029 11.5399 5.63072C11.2301 5.39893 11.1047 5.04546 11.1636 4.56974C11.1784 4.47214 11.2294 4.33759 11.3179 4.16679C11.4064 3.98378 11.5476 3.81927 11.7394 3.67286C11.9459 3.51436 12.2186 3.43484 12.5578 3.43483ZM12.7573 4.14811C12.6835 4.14816 12.5579 4.17896 12.381 4.23991C12.2188 4.28875 12.1226 4.41115 12.0931 4.6063C12.0637 4.78915 12.1087 4.92956 12.2267 5.02711C12.3447 5.12455 12.4772 5.18552 12.6246 5.2099C12.8606 5.24649 13.045 5.2221 13.1778 5.13679C13.3106 5.0392 13.3851 4.89892 13.3998 4.71597C13.4146 4.58176 13.3695 4.44723 13.2662 4.31302C13.1629 4.17899 12.9932 4.12372 12.7573 4.14811Z" fill="var(--fill-0, #0D0C0A)"/>
<path d="M39.64 3.474C39.64 3.81 39.742 4.098 39.946 4.338C40.15 4.578 40.444 4.698 40.828 4.698C41.224 4.698 41.566 4.62 41.854 4.464C42.142 4.296 42.298 4.212 42.322 4.212C42.406 4.212 42.448 4.254 42.448 4.338C42.448 4.638 42.166 4.992 41.602 5.4C41.05 5.808 40.408 6.012 39.676 6.012C39.208 6.012 38.854 5.892 38.614 5.652C38.386 5.412 38.272 5.1 38.272 4.716C38.272 4.02 38.566 3.33 39.154 2.646C39.754 1.962 40.432 1.62 41.188 1.62C41.368 1.62 41.512 1.674 41.62 1.782C41.74 1.89 41.8 2.052 41.8 2.268C41.8 2.472 41.68 2.706 41.44 2.97C41.2 3.222 40.96 3.348 40.72 3.348C40.66 3.348 40.63 3.318 40.63 3.258C40.63 3.186 40.666 3.108 40.738 3.024C40.81 2.94 40.846 2.85 40.846 2.754C40.846 2.646 40.81 2.538 40.738 2.43C40.666 2.322 40.588 2.268 40.504 2.268C40.24 2.268 40.03 2.388 39.874 2.628C39.718 2.856 39.64 3.138 39.64 3.474ZM37.318 4.536C37.318 5.16 37.498 5.724 37.858 6.228C38.23 6.72 38.872 6.966 39.784 6.966C40.696 6.966 41.53 6.528 42.286 5.652C43.042 4.764 43.42 3.846 43.42 2.898C43.42 2.274 43.21 1.764 42.79 1.368C42.382 0.972 41.77 0.774 40.954 0.774C40.15 0.774 39.34 1.188 38.524 2.016C37.72 2.832 37.318 3.672 37.318 4.536ZM41.836 0C43.036 0 43.924 0.216 44.5 0.648C45.088 1.068 45.382 1.596 45.382 2.232C45.382 2.868 45.196 3.516 44.824 4.176C44.452 4.824 43.966 5.418 43.366 5.958C42.766 6.498 42.052 6.948 41.224 7.308C40.396 7.668 39.502 7.848 38.542 7.848C37.582 7.848 36.844 7.644 36.328 7.236C35.812 6.828 35.554 6.312 35.554 5.688C35.554 5.064 35.734 4.422 36.094 3.762C36.454 3.102 36.916 2.496 37.48 1.944C38.056 1.38 38.734 0.918 39.514 0.558C40.294 0.186 41.068 0 41.836 0Z" fill="var(--fill-0, #0D0C0A)"/>
</g>
</g>
</svg>
