<svg width="17" height="34" viewBox="0 0 17 34" fill="none" xmlns="http://www.w3.org/2000/svg">
<path d="M16.9997 5.86135C16.9997 5.58521 16.7758 5.36023 16.4999 5.3721C15.1431 5.43046 13.8056 5.72606 12.5485 6.24675C11.1373 6.83129 9.85507 7.68807 8.77497 8.76816C7.69488 9.84826 6.83811 11.1305 6.25356 12.5417C5.66902 13.9529 5.36816 15.4655 5.36816 16.9929C5.36816 18.5204 5.66902 20.0329 6.25357 21.4441C6.83811 22.8554 7.69488 24.1376 8.77498 25.2177C9.85507 26.2978 11.1373 27.1546 12.5485 27.7391C13.8056 28.2598 15.1431 28.5554 16.4999 28.6138C16.7758 28.6256 16.9997 28.4007 16.9997 28.1245L16.9997 26.3386C16.9997 26.0625 16.7757 25.8401 16.5 25.8245C15.5092 25.7684 14.5337 25.546 13.6146 25.1653C12.5414 24.7207 11.5663 24.0692 10.7449 23.2478C9.9235 22.4264 9.27193 21.4512 8.8274 20.378C8.38286 19.3048 8.15406 18.1546 8.15406 16.9929C8.15406 15.8313 8.38286 14.681 8.8274 13.6078C9.27193 12.5346 9.9235 11.5595 10.7449 10.7381C11.5663 9.91669 12.5414 9.26512 13.6146 8.82058C14.5337 8.43991 15.5092 8.21744 16.5 8.16137C16.7757 8.14577 16.9997 7.92339 16.9997 7.64725L16.9997 5.86135Z" fill="black" fill-opacity="0.98"/>
<path d="M17.0005 11.2298C17.0005 10.9536 16.7762 10.7277 16.501 10.7497C15.8496 10.8018 15.2093 10.9557 14.6037 11.2065C13.8438 11.5213 13.1533 11.9826 12.5717 12.5642C11.9902 13.1458 11.5288 13.8363 11.2141 14.5961C10.8993 15.356 10.7373 16.1705 10.7373 16.9929C10.7373 17.8154 10.8993 18.6299 11.2141 19.3898C11.5288 20.1496 11.9902 20.8401 12.5717 21.4217C13.1533 22.0033 13.8438 22.4646 14.6037 22.7793C15.2093 23.0302 15.8496 23.184 16.501 23.2362C16.7763 23.2582 17.0005 23.0322 17.0005 22.7561L17.0005 20.9992C17.0005 20.7231 16.7755 20.5029 16.5022 20.4636C16.2131 20.4221 15.9297 20.3446 15.6587 20.2323C15.2333 20.0561 14.8467 19.7979 14.5211 19.4723C14.1956 19.1467 13.9373 18.7601 13.7611 18.3347C13.5849 17.9093 13.4942 17.4534 13.4942 16.9929C13.4942 16.5325 13.5849 16.0765 13.7611 15.6511C13.9373 15.2257 14.1956 14.8392 14.5211 14.5136C14.8467 14.188 15.2333 13.9298 15.6587 13.7536C15.9297 13.6413 16.2131 13.5638 16.5022 13.5222C16.7755 13.483 17.0005 13.2628 17.0005 12.9867L17.0005 11.2298Z" fill="black" fill-opacity="0.98"/>
<path d="M17 0.492919C17 0.216777 16.7761 -0.00784757 16.5001 0.000270122C14.438 0.0609353 12.4028 0.496463 10.4944 1.28697C8.43185 2.1413 6.55778 3.39351 4.97918 4.9721C3.40059 6.5507 2.14838 8.42477 1.29405 10.4873C0.439717 12.5498 -9.38262e-07 14.7604 -7.43094e-07 16.9929C-5.47925e-07 19.2254 0.439718 21.436 1.29405 23.4985C2.14838 25.5611 3.40059 27.4351 4.97919 29.0137C6.55778 30.5923 8.43185 31.8445 10.4944 32.6989C12.4028 33.4894 14.438 33.9249 16.5001 33.9856C16.7761 33.9937 17 33.7691 17 33.4929L17 31.7206C17 31.4445 16.7761 31.2216 16.5001 31.2119C14.8022 31.1522 13.1274 30.7888 11.5553 30.1376C9.8291 29.4226 8.26065 28.3746 6.93948 27.0534C5.61832 25.7323 4.57031 24.1638 3.8553 22.4376C3.14029 20.7114 2.77228 18.8613 2.77228 16.9929C2.77228 15.1245 3.14029 13.2744 3.8553 11.5482C4.57031 9.82202 5.61831 8.25357 6.93948 6.9324C8.26065 5.61124 9.8291 4.56323 11.5553 3.84822C13.1274 3.19704 14.8022 2.83367 16.5001 2.77398C16.7761 2.76428 17 2.54134 17 2.2652L17 0.492919Z" fill="black" fill-opacity="0.98"/>
</svg>
