<svg width="44" height="44" viewBox="0 0 44 44" fill="none" xmlns="http://www.w3.org/2000/svg">
<rect y="36" width="8" height="8" rx="0.8" fill="black" fill-opacity="0.98"/>
<rect x="36" y="36" width="8" height="8" rx="0.8" fill="black" fill-opacity="0.98"/>
<rect x="9" y="27" width="8" height="8" rx="0.8" fill="black" fill-opacity="0.98"/>
<rect x="27" y="27" width="8" height="8" rx="0.8" fill="black" fill-opacity="0.98"/>
<rect y="18" width="8" height="8" rx="0.8" fill="black" fill-opacity="0.98"/>
<rect x="9" y="18" width="8" height="8" rx="0.8" fill="black" fill-opacity="0.98"/>
<rect x="18" y="18" width="8" height="8" rx="0.8" fill="black" fill-opacity="0.98"/>
<rect x="27" y="18" width="8" height="8" rx="0.8" fill="black" fill-opacity="0.98"/>
<rect x="36" y="18" width="8" height="8" rx="0.8" fill="black" fill-opacity="0.98"/>
<rect y="9" width="8" height="8" rx="0.8" fill="black" fill-opacity="0.98"/>
<rect x="18" y="9" width="8" height="8" rx="0.8" fill="black" fill-opacity="0.98"/>
<rect x="36" y="9" width="8" height="8" rx="0.8" fill="black" fill-opacity="0.98"/>
<rect x="9" width="8" height="8" rx="0.8" fill="black" fill-opacity="0.98"/>
<rect x="18" width="8" height="8" rx="0.8" fill="black" fill-opacity="0.98"/>
<rect x="27" width="8" height="8" rx="0.8" fill="black" fill-opacity="0.98"/>
</svg>
