<svg width="17" height="34" viewBox="0 0 17 34" fill="none" xmlns="http://www.w3.org/2000/svg">
<path d="M0.000255543 28.1245C0.000255531 28.4006 0.224226 28.6256 0.500113 28.6137C1.85693 28.5554 3.1944 28.2598 4.45147 27.7391C5.86268 27.1545 7.14493 26.2978 8.22502 25.2177C9.30512 24.1376 10.1619 22.8553 10.7464 21.4441C11.331 20.0329 11.6318 18.5204 11.6318 16.9929C11.6318 15.4654 11.331 13.9529 10.7464 12.5417C10.1619 11.1305 9.30512 9.84823 8.22502 8.76814C7.14493 7.68805 5.86268 6.83127 4.45147 6.24673C3.1944 5.72603 1.85693 5.43043 0.500113 5.37207C0.224226 5.36021 0.000255575 5.58519 0.000255563 5.86133L0.000255485 7.64722C0.000255473 7.92337 0.224296 8.14575 0.499998 8.16135C1.49079 8.21741 2.46632 8.43989 3.38535 8.82056C4.45856 9.2651 5.4337 9.91667 6.2551 10.7381C7.0765 11.5595 7.72807 12.5346 8.1726 13.6078C8.61714 14.681 8.84594 15.8313 8.84594 16.9929C8.84594 18.1545 8.61714 19.3048 8.1726 20.378C7.72807 21.4512 7.0765 22.4264 6.2551 23.2478C5.4337 24.0691 4.45856 24.7207 3.38535 25.1653C2.46632 25.5459 1.49079 25.7684 0.499998 25.8245C0.224297 25.8401 0.000255634 26.0624 0.000255621 26.3386L0.000255543 28.1245Z" fill="black" fill-opacity="0.98"/>
<path d="M-0.000463535 22.7561C-0.000463547 23.0322 0.223749 23.2581 0.499012 23.2361C1.15042 23.184 1.79071 23.0302 2.39634 22.7793C3.15622 22.4645 3.84667 22.0032 4.42826 21.4216C5.00985 20.84 5.47119 20.1496 5.78594 19.3897C6.10069 18.6298 6.2627 17.8154 6.2627 16.9929C6.2627 16.1704 6.10069 15.356 5.78594 14.5961C5.47119 13.8362 5.00985 13.1458 4.42826 12.5642C3.84667 11.9826 3.15622 11.5212 2.39634 11.2065C1.79071 10.9556 1.15042 10.8018 0.499012 10.7497C0.223749 10.7277 -0.000463496 10.9536 -0.000463508 11.2297L-0.000463584 12.9866C-0.000463596 13.2627 0.224508 13.483 0.497847 13.5222C0.786918 13.5637 1.07032 13.6412 1.34134 13.7535C1.76674 13.9297 2.15327 14.188 2.47886 14.5136C2.80445 14.8392 3.06272 15.2257 3.23893 15.6511C3.41513 16.0765 3.50583 16.5324 3.50583 16.9929C3.50583 17.4533 3.41513 17.9093 3.23893 18.3347C3.06272 18.7601 2.80445 19.1466 2.47886 19.4722C2.15327 19.7978 1.76674 20.0561 1.34134 20.2323C1.07032 20.3445 0.786918 20.4221 0.497848 20.4636C0.224508 20.5028 -0.000463446 20.723 -0.000463458 20.9992L-0.000463535 22.7561Z" fill="black" fill-opacity="0.98"/>
<path d="M-1.46433e-06 33.4929C-1.4764e-06 33.7691 0.223919 33.9937 0.499943 33.9856C2.56195 33.9249 4.59717 33.4894 6.50562 32.6989C8.56815 31.8445 10.4422 30.5923 12.0208 29.0137C13.5994 27.4351 14.8516 25.5611 15.706 23.4985C16.5603 21.436 17 19.2254 17 16.9929C17 14.7604 16.5603 12.5498 15.706 10.4873C14.8516 8.42477 13.5994 6.5507 12.0208 4.9721C10.4422 3.39351 8.56815 2.1413 6.50562 1.28697C4.59717 0.496464 2.56195 0.0609357 0.499943 0.000271612C0.223919 -0.00784895 -1.91713e-06 0.216777 -1.9292e-06 0.492919L-2.00667e-06 2.2652C-2.01874e-06 2.54134 0.223932 2.76428 0.499905 2.77398C2.19777 2.83367 3.87263 3.19704 5.44471 3.84822C7.1709 4.56323 8.73935 5.61123 10.0605 6.9324C11.3817 8.25357 12.4297 9.82202 13.1447 11.5482C13.8597 13.2744 14.2277 15.1245 14.2277 16.9929C14.2277 18.8613 13.8597 20.7114 13.1447 22.4376C12.4297 24.1638 11.3817 25.7323 10.0605 27.0534C8.73935 28.3746 7.1709 29.4226 5.44471 30.1376C3.87263 30.7888 2.19777 31.1522 0.499903 31.2119C0.223933 31.2216 -1.37479e-06 31.4445 -1.38686e-06 31.7206L-1.46433e-06 33.4929Z" fill="black" fill-opacity="0.98"/>
</svg>
